# xmcd
#
# Track frame offsets:
#	150
#	18943
#	32101
#	46431
#	58700
#	74821
#	89304
#	102545
#	117081
#	131419
#	145649
#	161554
#
# Disc length: 2357 seconds
#
# Revision: 1
# Processed by: cddbd v1.5.2PL0 Copyright (c) Steve Scherf et al.
# Submitted via: audiograbber 1.83.01
#
DISCID=a609330c
DTITLE=Joe Diffie, Sammy Kershaw, Aaron Tippin - All in the Same Boat
DYEAR=2013
DGENRE=Country
TTITLE0=All in the Same Boat
TTITLE1=Kiss This
TTITLE2=Heart of Gold
TTITLE3=She Don't Know She's Beautiful
TTITLE4=The Way You Look Tonight
TTITLE5=On and On
TTITLE6=The Route That I Took
TTITLE7=I'm Hangin' On
TTITLE8=Misery Loves Country
TTITLE9=I Love to Work
TTITLE10=He Believed
TTITLE11=Old Friends
EXTD=
EXTT0=
EXTT1=
EXTT2=
EXTT3=
EXTT4=
EXTT5=
EXTT6=
EXTT7=
EXTT8=
EXTT9=
EXTT10=
EXTT11=
PLAYORDER=
